<?xml version="1.0" encoding="UTF-8"?>
<svg id="uuid-cfa9e575-6ecd-43ae-a030-941732622a08" data-name="Layer 2" xmlns="http://www.w3.org/2000/svg" xmlns:xlink="http://www.w3.org/1999/xlink" viewBox="0 0 2009.52 903.5">
  <defs>
    <radialGradient id="uuid-93650db9-ba78-4b58-8255-c2b01a8e7fc8" data-name="Degradado sin nombre 492" cx="2268.05" cy="-318.45" fx="2268.05" fy="-318.45" r="862.41" gradientTransform="translate(-926.97 622.53) scale(.85 .83)" gradientUnits="userSpaceOnUse">
      <stop offset=".01" stop-color="#005b9d"/>
      <stop offset="1" stop-color="#1d3c71"/>
    </radialGradient>
    <radialGradient id="uuid-6ee92ba0-eac5-4672-a79d-b04716abf472" data-name="Degradado sin nombre 604" cx="2285.37" cy="-318.45" fx="2285.37" fy="-318.45" r="850.74" gradientTransform="translate(-926.97 622.53) scale(.85 .83)" gradientUnits="userSpaceOnUse">
      <stop offset=".02" stop-color="#3d80c0"/>
      <stop offset=".77" stop-color="#014f93"/>
    </radialGradient>
    <radialGradient id="uuid-bceb831b-075a-47db-97c6-e5a04dec920b" data-name="Degradado sin nombre 212" cx="545.19" cy="650.24" fx="545.19" fy="650.24" r="329.55" gradientUnits="userSpaceOnUse">
      <stop offset="0" stop-color="#f2dc00"/>
      <stop offset=".79" stop-color="#e0af09"/>
    </radialGradient>
  </defs>
  <g id="uuid-5f66ce65-2826-488d-a5b7-bc5a193f933c" data-name="Capa 2">
    <g>
      <g>
        <path d="M1552.97,192.42c-.86,1.76-1.74,3.53-2.64,5.29-71.6,138.91-292.65,305.67-591.89,188.7-303.06-118.46-419.49,141.8-419.49,144.59l-60.87-130.32-16.24-34.78c163.28-208.96,282.81-203.59,565.81-75.33,231.62,101.72,520.26-94.7,525.26-98.11.02,0,.02-.03.05-.03Z" style="fill: #e5eaec;"/>
        <path d="M1552.97,192.42c-.07.11-.12.25-.19.36-.79,1.65-1.62,3.27-2.45,4.93-57.58,111.68-211.77,241.39-425.53,227.12-19.18-1.26-38.84-3.72-58.97-7.44-34.52-6.35-70.35-16.48-107.39-30.98-303.06-118.46-419.49,141.8-419.49,144.59l-43.15-92.38-17.72-37.95c155.21-188.19,271.99-194.24,545.53-70.24,231.57,101.67,524.15-133.48,529.31-137.99.02,0,.02-.03.05-.03Z" style="fill: #e5eaec;"/>
        <path d="M1027.67,404.37c12.58,5.51,25.31,9.82,38.17,13.01-34.52-6.35-70.35-16.48-107.39-30.98-303.06-118.46-419.49,141.8-419.49,144.59l-43.15-92.38c146.99-166.51,268.82-153.49,531.85-34.25Z" style="fill: #e5eaec;"/>
        <path d="M1552.79,192.78c-.79,1.65-1.62,3.27-2.45,4.93-57.58,111.68-211.77,241.39-425.53,227.12,206.31,2.55,420.32-224.71,427.98-232.04Z" style="fill: #e5eaec;"/>
        <path d="M1516.77,163.34c-38.73,38.03-135.96,118.88-281.8,142.44-191.46,30.92-348.56-99.68-350.76-101.5,378.08,238.09,599.22-76.7,600.17-76.26l32.39,35.32Z" style="fill: #e5eaec;"/>
        <path d="M979.85,401.23c-8.61-2.74-289.52-90.05-428.81,171.68l-5.14-30.73c137.39-273.69,425.04-145.04,433.95-140.96Z" style="fill: #e5eaec;"/>
        <path d="M980.06,401.32c-2.64-.34-5.25-.64-7.84-.95-332.65-38.37-408.57,248.16-408.57,248.16l-12.61-75.61c139.29-261.74,420.21-174.43,428.81-171.68.14.06.21.08.21.08Z" style="fill: #e5eaec;"/>
      </g>
      <g>
        <path d="M1973.34,52.17c-1.54,3.18-3.13,6.36-4.75,9.53-129.05,250.37-527.44,550.92-1066.77,340.09C355.61,188.3,145.76,657.36,145.76,662.41l-109.7-234.88-29.27-62.69C301.07-11.78,516.51-2.1,1026.57,229.06c417.45,183.34,937.68-170.68,946.69-176.83.04,0,.04-.05.08-.05Z" style="fill: url(#uuid-93650db9-ba78-4b58-8255-c2b01a8e7fc8);"/>
        <g style="opacity: .86;">
          <image width="8373" height="2844" transform="scale(.24)" xlink:href="header 1-1.png"/>
        </g>
        <path d="M1973.34,52.17c-.13.2-.21.45-.33.66-1.42,2.98-2.92,5.9-4.42,8.88-103.78,201.29-381.68,435.07-766.94,409.34-34.57-2.27-70.01-6.71-106.28-13.42-62.21-11.45-126.79-29.71-193.55-55.83C355.61,188.3,145.76,657.36,145.76,662.41l-77.76-166.49-31.94-68.39C315.79,88.34,526.27,77.44,1019.27,300.93c417.37,183.24,944.69-240.58,953.98-248.7.04,0,.04-.05.08-.05Z" style="fill: url(#uuid-6ee92ba0-eac5-4672-a79d-b04716abf472);"/>
        <path d="M1973,52.83c-1.42,2.98-2.92,5.9-4.42,8.88-103.78,201.29-381.68,435.07-766.94,409.34,371.84,4.59,757.56-405.01,771.36-418.22Z" style="fill: #237fb2;"/>
        <path d="M936.06,457.79c-16.05-7.36-534.49-239.22-782.12,254.05l9.26,55.38,22.72,136.28s136.84-516.42,736.38-447.27c4.67.55,9.38,1.11,14.13,1.71,0,0-.13-.05-.38-.15Z" style="fill: url(#uuid-bceb831b-075a-47db-97c6-e5a04dec920b);"/>
      </g>
    </g>
  </g>
</svg>