<?xml version="1.0" encoding="UTF-8"?>
<svg id="uuid-6263dc51-4b58-478e-920f-83794f8b2475" data-name="Layer 2" xmlns="http://www.w3.org/2000/svg" xmlns:xlink="http://www.w3.org/1999/xlink" viewBox="0 0 1204.28 425.45">
  <defs>
    <clipPath id="uuid-cc6db3c4-89d5-488c-991e-41d7b7f05203">
      <polygon points="0 237.31 0 360.71 264.69 360.71 322.22 237.31 0 237.31" style="fill: none;"/>
    </clipPath>
    <linearGradient id="uuid-a110e6e6-31bb-4211-8f1f-51b3c4fe832e" data-name="Degradado sin nombre 3" x1="3395.6" y1="6204.14" x2="3402.35" y2="6204.14" gradientTransform="translate(-161922.18 -295551.12) scale(47.69)" gradientUnits="userSpaceOnUse">
      <stop offset="0" stop-color="#1d1d1b"/>
      <stop offset=".02" stop-color="#1d1d1b"/>
      <stop offset=".15" stop-color="#545453"/>
      <stop offset=".28" stop-color="#848483"/>
      <stop offset=".4" stop-color="#acacab"/>
      <stop offset=".53" stop-color="#cbcbca"/>
      <stop offset=".65" stop-color="#e1e1e1"/>
      <stop offset=".76" stop-color="#eee"/>
      <stop offset=".86" stop-color="#f3f3f3"/>
      <stop offset="1" stop-color="#fff"/>
    </linearGradient>
    <mask id="uuid-2e5cbefe-3110-43e9-9197-9dc8478d838e" data-name="mask" x="0" y="237.3" width="322.23" height="123.41" maskUnits="userSpaceOnUse">
      <g>
        <rect y="237.31" width="322.23" height="123.4"/>
        <g style="isolation: isolate;">
          <rect y="237.31" width="322.23" height="123.4" style="fill: url(#uuid-a110e6e6-31bb-4211-8f1f-51b3c4fe832e);"/>
        </g>
      </g>
    </mask>
    <clipPath id="uuid-586ed81e-27c8-4699-a853-c0c8574560d0">
      <rect y="237.3" width="322.23" height="123.4" style="fill: none;"/>
    </clipPath>
    <clipPath id="uuid-4f4d6cf4-4a06-4ae1-9352-91ee49d1a7d3">
      <rect y="237.3" width="322.22" height="123.4" style="fill: none;"/>
    </clipPath>
    <linearGradient id="uuid-8c6f6f41-342b-41e3-a58a-f72982a8b0a6" data-name="Degradado sin nombre 10" x1="3395.59" y1="6204.13" x2="3402.35" y2="6204.13" gradientTransform="translate(-161916.28 -295540.38) scale(47.68)" gradientUnits="userSpaceOnUse">
      <stop offset="0" stop-color="#fff"/>
      <stop offset=".02" stop-color="#fff"/>
      <stop offset=".09" stop-color="#fdfad9"/>
      <stop offset=".21" stop-color="#fbf2a0"/>
      <stop offset=".33" stop-color="#f9ec6f"/>
      <stop offset=".44" stop-color="#f7e747"/>
      <stop offset=".56" stop-color="#f6e328"/>
      <stop offset=".67" stop-color="#f5e011"/>
      <stop offset=".77" stop-color="#f5de04"/>
      <stop offset=".86" stop-color="#f5de00"/>
      <stop offset="1" stop-color="#f5de00"/>
    </linearGradient>
  </defs>
  <g id="uuid-c0277040-e798-44ce-89a9-57c68fb350ae" data-name="Capa 3">
    <g>
      <g style="clip-path: url(#uuid-cc6db3c4-89d5-488c-991e-41d7b7f05203);">
        <g style="mask: url(#uuid-2e5cbefe-3110-43e9-9197-9dc8478d838e);">
          <g style="clip-path: url(#uuid-586ed81e-27c8-4699-a853-c0c8574560d0);">
            <g style="clip-path: url(#uuid-4f4d6cf4-4a06-4ae1-9352-91ee49d1a7d3);">
              <rect x="0" y="237.3" width="322.22" height="123.4" style="fill: url(#uuid-8c6f6f41-342b-41e3-a58a-f72982a8b0a6);"/>
            </g>
          </g>
        </g>
      </g>
      <path d="M0,47.77h41.48v21.58h.61c11.45-16.34,28.16-25.89,48.91-25.89s38.07,7.39,46.74,26.5c9.29-13.87,26-26.5,48.28-26.5,34.05,0,58.51,15.72,58.51,57.01v106.63h-43.95v-90.31c0-21.26-1.86-38.83-26.94-38.83s-29.41,20.34-29.41,40.38v88.76h-43.95v-89.38c0-18.49,1.24-39.75-26.62-39.75-8.66,0-29.71,5.55-29.71,36.68v92.45H0V47.77Z" style="fill: #004f96;"/>
      <path d="M386.93,110.32c-4.03-22.19-13.62-33.9-34.98-33.9-27.85,0-35.92,21.57-36.52,33.9h71.5ZM315.43,138.06c1.23,27.74,14.86,40.37,39.31,40.37,17.64,0,31.87-10.78,34.67-20.64h38.69c-12.38,37.6-38.69,53.61-74.91,53.61-50.44,0-81.72-34.52-81.72-83.83s33.12-84.12,81.72-84.12c54.47,0,80.79,45.61,77.69,94.6h-115.45Z" style="fill: #004f96;"/>
      <path d="M512.6,47.77h32.19v29.28h-32.19v78.89c0,14.79,3.71,18.48,18.57,18.48,4.65,0,8.99-.31,13.62-1.23v34.2c-7.43,1.24-17.02,1.54-25.68,1.54-26.94,0-50.46-6.16-50.46-37.9v-93.98h-26.62v-29.28h26.62V0h43.95v47.77Z" style="fill: #004f96;"/>
      <path d="M643.54,178.44c30.02,0,38.99-25.58,38.99-50.84s-8.97-51.17-38.99-51.17-38.69,25.58-38.69,51.17,8.97,50.84,38.69,50.84M643.54,43.45c50.46,0,82.95,33.29,82.95,84.14s-32.5,83.81-82.95,83.81-82.65-33.29-82.65-83.81,32.5-84.14,82.65-84.14" style="fill: #004f96;"/>
      <path d="M469.16,286.21c-2.95-16.3-10-24.89-25.7-24.89-20.47,0-26.37,15.83-26.83,24.89h52.53ZM416.63,306.59c.92,20.38,10.92,29.66,28.88,29.66,12.97,0,23.43-7.92,25.48-15.16h28.42c-9.09,27.62-28.42,39.4-55.04,39.4-37.06,0-60.04-25.37-60.04-61.6s24.35-61.8,60.04-61.8c40.03,0,59.36,33.51,57.09,69.51h-84.83Z" style="fill: #004f96;"/>
      <path d="M600.6,281.45c-2.04-13.13-10.45-20.16-23.88-20.16-20.69,0-27.52,20.84-27.52,38.04s6.6,36.92,26.84,36.92c15.01,0,23.65-9.53,25.7-23.79h31.16c-4.1,31.02-25.7,48-56.63,48-35.48,0-59.36-24.9-59.36-60.01s21.84-63.38,60.04-63.38c27.75,0,53.22,14.49,55.27,44.37h-31.62Z" style="fill: #004f96;"/>
      <path d="M358.91,234.64l-67.8,142.24c-1.5,3.02-5.01,11.24-9.16,19.08l-13.35,29.49c26.13-.81,40.31-13.89,51.59-37.97l72.59-152.84h-33.86Z" style="fill: #004f96;"/>
      <path d="M692.02,210.13c-9.23,5.91-20.11,8.41-32.3,10.25v22.77h-19.56v21.52h19.56v66.15c0,23.31,17.29,27.85,37.07,27.85,6.37,0,13.42-.23,18.88-1.13v-25.14c-3.41.67-6.6.89-10.01.89-10.91,0-13.64-2.71-13.64-13.58v-55.05h23.65v-21.52h-23.65v-33.02Z" style="fill: #004f96;"/>
      <path d="M723.02,208.83h4.03c2.56,0,4.48-.38,4.48-3.15,0-2.44-2.62-2.82-4.69-2.82h-3.82v5.97ZM718.49,199.33h8.62c5.72,0,8.94,1.8,8.94,6.73,0,4.18-2.61,5.81-6,6.08l6.12,9.93h-4.76l-5.55-9.72h-2.83v9.72h-4.53v-22.74ZM726.61,226.73c8.45,0,15.37-6.72,15.37-16.01s-6.93-15.9-15.37-15.9-15.37,6.67-15.37,15.9,6.82,16.01,15.37,16.01M726.61,190.48c11.06,0,20.94,7.93,20.94,20.25s-9.88,20.35-20.94,20.35-20.93-7.97-20.93-20.35,9.87-20.25,20.93-20.25" style="fill: #004f96;"/>
      <path d="M829.44,157.08c0,4.84-1.66,8.57-4.96,11.18-3.31,2.6-8.05,3.91-14.2,3.91h-5.64v18.83h-5.56v-47.89h12.41c11.97,0,17.95,4.66,17.95,13.96M804.64,167.4h5.01c4.94,0,8.51-.79,10.71-2.39,2.2-1.59,3.32-4.15,3.32-7.68,0-3.16-1.05-5.51-3.12-7.06-2.07-1.56-5.3-2.33-9.69-2.33h-6.23v19.45Z" style="fill: #004f96;"/>
      <path d="M845.03,171.1v19.91h-5.56v-47.88h13.13c5.87,0,10.22,1.12,13.02,3.37,2.81,2.25,4.21,5.63,4.21,10.15,0,6.35-3.22,10.62-9.62,12.85l12.99,21.52h-6.59l-11.6-19.91h-9.99ZM845.03,166.32h7.64c3.93,0,6.82-.78,8.65-2.34,1.84-1.56,2.76-3.91,2.76-7.03s-.95-5.45-2.81-6.85c-1.86-1.39-4.87-2.09-8.98-2.09h-7.25v18.31Z" style="fill: #004f96;"/>
      <polygon points="907.62 191.01 880.93 191.01 880.93 143.13 907.62 143.13 907.62 148.07 886.5 148.07 886.5 163.5 906.35 163.5 906.35 168.42 886.5 168.42 886.5 186.03 907.62 186.03 907.62 191.01" style="fill: #004f96;"/>
      <polygon points="919.55 191.01 919.55 143.13 925.11 143.13 925.11 185.96 946.24 185.96 946.24 191.01 919.55 191.01" style="fill: #004f96;"/>
      <polygon points="954.36 191.01 954.36 143.13 959.92 143.13 959.92 185.96 981.06 185.96 981.06 191.01 954.36 191.01" style="fill: #004f96;"/>
      <polygon points="1015.87 191.01 989.18 191.01 989.18 143.13 1015.87 143.13 1015.87 148.07 994.74 148.07 994.74 163.5 1014.6 163.5 1014.6 168.42 994.74 168.42 994.74 186.03 1015.87 186.03 1015.87 191.01" style="fill: #004f96;"/>
      <path d="M1063.89,191.01h-6.35l-26.18-40.19h-.25c.34,4.71.51,9.03.51,12.97v27.22h-5.14v-47.88h6.28l26.1,40.02h.26c-.05-.59-.14-2.49-.3-5.69-.15-3.2-.2-5.48-.16-6.86v-27.48h5.21v47.88Z" style="fill: #004f96;"/>
      <path d="M1107.15,191.01l-5.95-15.23h-19.2l-5.9,15.23h-5.63l18.93-48.08h4.68l18.83,48.08h-5.77ZM1099.45,170.77l-5.56-14.83c-.72-1.88-1.47-4.18-2.22-6.91-.49,2.09-1.18,4.41-2.07,6.91l-5.63,14.83h15.48Z" style="fill: #004f96;"/>
      <path d="M1157.73,166.62c0,7.91-2.16,13.95-6.45,18.12-4.29,4.18-10.46,6.27-18.51,6.27h-13.27v-47.88h14.67c7.44,0,13.24,2.07,17.37,6.2,4.13,4.13,6.19,9.89,6.19,17.29M1151.82,166.81c0-6.25-1.56-10.95-4.69-14.12-3.14-3.17-7.79-4.75-13.97-4.75h-8.1v38.25h6.79c6.63,0,11.62-1.63,14.97-4.9,3.34-3.26,5-8.09,5-14.49" style="fill: #004f96;"/>
      <path d="M1198.51,191.01l-5.95-15.23h-19.2l-5.9,15.23h-5.63l18.93-48.08h4.68l18.83,48.08h-5.77ZM1190.81,170.77l-5.56-14.83c-.72-1.88-1.47-4.18-2.22-6.91-.49,2.09-1.18,4.41-2.07,6.91l-5.63,14.83h15.48Z" style="fill: #004f96;"/>
      <path d="M792.11,129.32c-2.05,0-3.67-.28-4.85-.89v-4.74c1.55.43,3.16.65,4.85.65,2.16,0,3.8-.65,4.93-1.96,1.12-1.3,1.68-3.2,1.68-5.66v-47.89h5.57v47.43c0,4.15-1.05,7.36-3.14,9.64-2.1,2.28-5.12,3.42-9.04,3.42" style="fill: #004f96;"/>
      <polygon points="843.69 116.71 817 116.71 817 68.83 843.69 68.83 843.69 73.77 822.56 73.77 822.56 89.2 842.42 89.2 842.42 94.12 822.56 94.12 822.56 111.73 843.69 111.73 843.69 116.71" style="fill: #004f96;"/>
      <path d="M859.87,96.8v19.91h-5.56v-47.88h13.13c5.87,0,10.22,1.12,13.02,3.37,2.81,2.25,4.21,5.63,4.21,10.15,0,6.35-3.22,10.62-9.62,12.85l12.99,21.52h-6.59l-11.6-19.91h-9.99ZM859.87,92.02h7.64c3.93,0,6.82-.78,8.65-2.34,1.84-1.56,2.76-3.91,2.76-7.03s-.95-5.45-2.81-6.85c-1.86-1.39-4.87-2.09-8.98-2.09h-7.25v18.31Z" style="fill: #004f96;"/>
      <rect x="895.77" y="68.82" width="5.56" height="47.88" style="fill: #004f96;"/>
      <path d="M951.87,116.71h-6.35l-26.18-40.19h-.25c.34,4.71.51,9.03.51,12.97v27.22h-5.14v-47.88h6.28l26.1,40.02h.26c-.05-.59-.14-2.49-.3-5.69-.15-3.2-.2-5.48-.16-6.86v-27.48h5.21v47.88Z" style="fill: #004f96;"/>
      <path d="M986.09,91.63h16.28v23.29c-2.53.8-5.11,1.42-7.73,1.83-2.62.41-5.66.62-9.1.62-7.25,0-12.91-2.16-16.94-6.47-4.04-4.32-6.06-10.36-6.06-18.12,0-4.99,1-9.35,2.99-13.09,2-3.75,4.88-6.61,8.64-8.58,3.76-1.98,8.16-2.97,13.2-2.97s9.87.94,14.28,2.82l-2.16,4.91c-4.32-1.84-8.49-2.76-12.48-2.76-5.82,0-10.38,1.74-13.66,5.21-3.26,3.47-4.91,8.29-4.91,14.45s1.57,11.35,4.74,14.7c3.16,3.34,7.78,5.01,13.9,5.01,3.32,0,6.56-.39,9.72-1.14v-14.74h-10.71v-4.98Z" style="fill: #004f96;"/>
      <path d="M1043.97,116.71l-5.95-15.23h-19.2l-5.9,15.23h-5.63l18.93-48.08h4.68l18.83,48.08h-5.77ZM1036.27,96.47l-5.56-14.83c-.72-1.88-1.47-4.18-2.22-6.91-.49,2.09-1.18,4.41-2.07,6.91l-5.63,14.83h15.48Z" style="fill: #004f96;"/>
    </g>
  </g>
</svg>