<?xml version="1.0" encoding="UTF-8"?>
<svg id="uuid-a8408517-f7a0-4215-b2cf-a2e40b62e00d" data-name="Layer 2" xmlns="http://www.w3.org/2000/svg" viewBox="0 0 100.5 100.51">
  <g id="uuid-3b56437c-1fbb-41c1-8c8b-cf7fbb753a15" data-name="Capa 4">
    <g>
      <path d="M0,50.27C-.03,22.62,22.65-.04,50.3,0c27.67.04,50.18,22.57,50.2,50.23.02,27.69-22.62,50.33-50.28,50.28C22.56,100.47.03,77.92,0,50.27ZM50.27,3.29C24.46,3.27,3.39,24.31,3.3,50.21c-.09,25.76,21.03,46.94,46.88,47.01,25.84.07,47.05-21.11,47.03-46.98-.02-25.85-21.09-46.92-46.94-46.94Z" style="fill: #ffd113;"/>
      <path d="M61.53,50.09c4.82,4.81,9.35,9.25,13.8,13.76,3.94,4,3.07,10.29-1.72,12.94-3.26,1.8-7.02,1.23-9.84-1.56-4.07-4.03-8.11-8.09-12.15-12.15-.4-.4-.75-.84-1.22-1.38-.52.49-.93.85-1.31,1.23-4.2,4.19-8.35,8.43-12.61,12.56-2.41,2.34-5.36,2.96-8.51,1.75-3.14-1.21-4.91-3.6-5.2-6.96-.23-2.61.75-4.79,2.6-6.62,4.42-4.4,8.83-8.81,13.38-13.35-.41-.44-.76-.85-1.14-1.23-4.15-4.16-8.34-8.3-12.46-12.49-2.36-2.4-3.05-5.3-1.92-8.48,1.1-3.12,3.43-4.91,6.7-5.33,2.65-.34,4.93.58,6.81,2.46,4.12,4.12,8.25,8.25,12.37,12.37.36.35.73.69,1.17,1.1.45-.43.86-.8,1.25-1.19,4.12-4.12,8.22-8.27,12.38-12.36,2.35-2.31,5.17-3.05,8.33-2.01,3.15,1.04,4.99,3.32,5.49,6.57.43,2.77-.54,5.12-2.51,7.09-4.05,4.05-8.1,8.11-12.16,12.14-.39.39-.89.68-1.52,1.15ZM31.49,26.73c-2.35.04-3.86,1.03-4.42,2.55-.64,1.75-.26,3.3,1.07,4.63,4.78,4.77,9.56,9.54,14.33,14.33,1.54,1.54,1.54,2.47,0,4.01-2.85,2.87-5.71,5.72-8.57,8.58-1.99,1.99-3.99,3.97-5.96,5.98-1.24,1.26-1.48,2.79-.87,4.4.6,1.58,1.86,2.41,3.53,2.54,1.49.11,2.62-.64,3.64-1.66,4.62-4.64,9.25-9.27,13.88-13.9,1.76-1.76,2.54-1.75,4.34.04,1.09,1.08,2.17,2.17,3.26,3.26,3.65,3.65,7.3,7.31,10.96,10.96,1.28,1.28,2.81,1.67,4.5,1.03,1.52-.57,2.37-1.76,2.56-3.36.19-1.56-.55-2.74-1.62-3.8-4.64-4.62-9.27-9.26-13.9-13.89-1.82-1.82-1.82-2.52-.02-4.32,4.63-4.63,9.25-9.27,13.9-13.89,1.11-1.1,1.86-2.32,1.62-3.94-.24-1.6-1.13-2.76-2.66-3.28-1.71-.58-3.21-.13-4.48,1.15-4.73,4.75-9.47,9.48-14.22,14.22-1.7,1.69-2.49,1.68-4.22-.04-4.63-4.63-9.23-9.29-13.92-13.86-.9-.87-2.15-1.38-2.72-1.74Z" style="fill: #ffd113;"/>
    </g>
  </g>
</svg>