<?xml version="1.0" encoding="UTF-8"?>
<svg id="uuid-2e6b16b2-9153-47d8-ae27-070213ecd524" data-name="Layer 2" xmlns="http://www.w3.org/2000/svg" viewBox="0 0 148.78 148.78">
  <g id="uuid-66e43ec3-82a0-46f9-bd05-3b23aa54922b" data-name="Capa 4">
    <g>
      <path d="M74.35,0c41.01-.02,74.43,33.38,74.44,74.38,0,41-33.43,74.42-74.42,74.4C33.37,148.77-.03,115.33,0,74.32.03,33.4,33.41.02,74.35,0ZM74.38,143.82c38.22.01,69.36-31.09,69.44-69.34.08-38.26-31.13-69.51-69.42-69.52-38.22,0-69.36,31.08-69.44,69.34-.08,38.25,31.14,69.51,69.42,69.52Z" style="fill: #014f93;"/>
      <path d="M57.29,113.53c-2.81.02-5.44-.7-7.75-2.29-8.76-6.02-17.54-12.02-26.2-18.18-5.19-3.69-7.11-10.31-5.06-16.28,2.02-5.91,7.72-9.9,14.02-9.78,3.31.07,6.25,1.2,8.85,3.24,4.54,3.58,9.09,7.15,13.63,10.72,1.92,1.51,2.44,1.51,4.27-.07,15.07-12.96,30.14-25.92,45.2-38.89,6.63-5.71,16.09-5.21,21.44,1.18,5.62,6.71,4.59,16.02-2.43,21.66-15.54,12.47-31.1,24.92-46.65,37.38-3.38,2.71-6.76,5.43-10.16,8.13-2.68,2.13-5.73,3.22-9.17,3.17ZM124.49,52.82c-.24-1.1-.37-2.24-.75-3.29-2.4-6.73-10.51-8.68-16.12-3.87-15.24,13.08-30.45,26.19-45.68,39.27-3.18,2.73-6.55,2.78-9.83.21-4.71-3.69-9.41-7.41-14.13-11.09-2.62-2.04-5.57-2.65-8.75-1.65-3.61,1.14-5.88,3.65-6.55,7.35-.73,4.02.67,7.34,4.04,9.7,8.21,5.72,16.46,11.4,24.69,17.1,4.25,2.95,8.45,2.8,12.53-.46,6.53-5.22,13.05-10.45,19.58-15.68,12.25-9.81,24.49-19.63,36.74-29.43,2.62-2.09,4.08-4.73,4.24-8.15Z" style="fill: #014f93;"/>
    </g>
  </g>
</svg>